<svg width="1087" height="954" viewBox="0 0 1087 954" fill="none" xmlns="http://www.w3.org/2000/svg">
    <g clip-path="url(#clip0_0_1)">
        <g clip-path="url(#clip1_0_1)">
            <g clip-path="url(#clip2_0_1)">
                <g clip-path="url(#clip3_0_1)">
                    <g clip-path="url(#clip4_0_1)">
                        <g clip-path="url(#clip5_0_1)">
                            <g clip-path="url(#clip6_0_1)">
                                <g clip-path="url(#clip7_0_1)">
                                    <path d="M10.969 191.405C11.0837 199.432 13.033 206.771 16.8171 213.422C20.6011 220.073 28.1692 223.398 39.5214 223.398C44.4522 223.398 49.016 222.767 53.2128 221.506C57.3868 220.245 61.9391 218.181 66.8698 215.314L71.3419 222.538C66.7552 225.634 61.6524 228.099 56.0337 229.934C50.4149 231.769 44.6815 232.686 38.8334 232.686C26.7932 232.686 17.4248 228.81 10.7282 221.059C4.00862 213.33 0.648834 203.159 0.648834 190.545C0.648834 182.404 2.13952 174.744 5.1209 167.566C8.10228 160.411 12.517 154.597 18.3651 150.125C24.2132 145.653 31.0933 143.417 39.0054 143.417C45.6562 143.417 51.6992 144.988 57.1345 148.13C62.5927 151.294 66.9042 155.595 70.0691 161.03C73.211 166.488 74.782 172.543 74.782 179.193C74.782 181.028 74.7246 182.656 74.61 184.078C74.4953 185.523 74.3806 186.761 74.2659 187.793L73.9219 191.405H10.969ZM11.485 182.117H64.2898C64.4045 181.315 64.4618 180.168 64.4618 178.677C64.4618 173.861 63.3151 169.469 61.0218 165.502C58.7284 161.557 55.6323 158.438 51.7336 156.145C47.8349 153.852 43.5348 152.705 38.8334 152.705C31.8386 152.705 25.8529 155.251 20.8763 160.342C15.8768 165.456 12.7464 172.715 11.485 182.117ZM95.0783 182.977V173.345H146.163V182.977H95.0783ZM257.105 221.162L261.405 229.59C259.111 231.195 256.589 231.998 253.837 231.998C250.511 231.998 247.874 231.333 245.925 230.003C243.952 228.696 242.29 227.125 240.936 225.29L220.468 197.598C216.455 192.208 212.923 188.562 209.873 186.658C206.846 184.778 202.683 183.665 197.385 183.321V173.689H212.384C219.837 173.689 225.8 171.453 230.272 166.981C234.721 162.509 236.946 156.432 236.946 148.749C236.946 141.181 234.836 134.954 230.616 130.069C226.374 125.207 220.927 122.776 214.276 122.776H186.756V230.794H176.435V113.144H214.964C221.156 113.144 226.683 114.658 231.545 117.685C236.43 120.735 240.271 124.898 243.069 130.173C245.867 135.447 247.266 141.295 247.266 147.717C247.266 153.794 246.074 159.184 243.689 163.885C241.28 168.586 238.414 172.313 235.088 175.065C231.74 177.817 228.633 179.48 225.766 180.053C223.839 180.397 221.58 180.535 218.989 180.466C216.42 180.42 215.079 180.397 214.964 180.397C218.633 181.2 221.787 183.321 224.424 186.761L231.304 196.222C233.345 198.974 236.464 203.216 240.661 208.95C244.858 214.683 247.587 218.238 248.849 219.614C249.651 220.531 250.362 221.185 250.981 221.575C251.624 221.988 252.518 222.194 253.665 222.194C255.132 222.194 256.279 221.85 257.105 221.162ZM283.559 230.794V113.144H359.068V122.776H293.879V163.713H341.868V173.345H293.879V221.162H362.508V230.794H283.559ZM375.236 230.794L425.461 109.876H428.729L479.298 230.794H468.29L451.605 191.749H402.585L386.244 230.794H375.236ZM447.477 182.117L431.309 141.869C429.474 137.282 428.041 132.81 427.009 128.453C425.633 133.842 424.257 138.314 422.881 141.869L406.713 182.117H447.477ZM545.691 233.718C534.683 233.718 524.764 230.966 515.934 225.462C507.105 219.958 500.167 212.562 495.122 203.274C490.077 193.985 487.554 183.895 487.554 173.001C487.554 161.878 490.191 151.444 495.466 141.697C500.741 131.95 507.907 124.152 516.966 118.304C526.025 112.456 535.829 109.532 546.379 109.532C556.011 109.532 565.035 111.711 573.452 116.068C581.892 120.426 586.341 128.223 586.799 139.461H576.479C576.135 131.893 572.661 126.732 566.056 123.98C559.474 121.228 552.628 119.852 545.519 119.852C536.919 119.852 528.949 122.398 521.61 127.489C514.272 132.604 508.481 139.289 504.238 147.545C499.995 155.801 497.874 164.458 497.874 173.517C497.874 182.232 499.938 190.396 504.066 198.01C508.194 205.647 513.893 211.759 521.163 216.346C528.456 220.933 536.689 223.226 545.863 223.226C554.233 223.226 561.997 221.334 569.152 217.55C576.33 213.766 581.983 208.663 586.111 202.242L594.539 208.09C589.15 216.231 582.098 222.538 573.383 227.01C564.668 231.482 555.438 233.718 545.691 233.718ZM617.588 230.794V113.144H627.908V164.745H691.377V113.144H701.697V230.794H691.377V174.377H627.908V230.794H617.588Z" fill="#368DB2"/>
                                </g>
                            </g>
                        </g>
                    </g>
                    <g clip-path="url(#clip8_0_1)">
                        <g clip-path="url(#clip9_0_1)">
                            <path d="M925.206 87.0545C900.726 87.0545 877.996 99.499 864.594 119.52C851.191 99.4949 828.462 87.0545 803.981 87.0545C760.351 87.0545 731.031 116.374 731.031 160.004C731.031 207.351 745.644 265.337 854.065 336.458L864.594 343.25L875.164 336.433C983.544 265.337 998.156 207.351 998.156 160.004C998.156 116.374 968.841 87.0545 925.206 87.0545ZM868.405 326.049L864.594 328.51L860.82 326.078C757.37 258.211 743.422 204.043 743.422 160.004C743.422 123.216 767.197 99.4412 803.985 99.4412C826.571 99.4412 847.335 112.237 857.699 132.221L825.357 199.91C824.915 200.736 821.149 208.189 825.357 215.212C828.842 221.038 836.348 223.994 847.942 223.994C847.95 223.994 847.967 223.994 847.975 223.994C849.16 223.941 857.488 223.408 864.235 218.883C868.71 222.582 873.81 224.048 876.902 224.287C877.765 224.325 878.599 224.341 879.417 224.341C889.372 224.341 896.155 221.686 899.603 216.438C904.095 209.597 900.644 201.995 900.354 201.413L891.007 179.567C891.453 178.84 891.758 178.341 891.837 178.213C893.624 175.294 892.704 171.483 889.784 169.699C886.878 167.915 883.054 168.828 881.271 171.751C881.229 171.817 880.292 173.349 878.851 175.694L878.847 175.702C874.012 183.568 863.277 200.984 859.536 206.484C859.532 206.492 859.528 206.5 859.519 206.508C859.507 206.529 859.486 206.558 859.474 206.579C856.922 210.319 849.73 211.5 847.698 211.616C837.971 211.616 836.158 209.155 835.985 208.874C835.452 208.02 836.038 206.236 836.397 205.513L864.487 146.742L864.59 146.973L870.156 134.88L870.18 134.83L870.184 134.822L870.217 134.748C880.094 113.306 901.676 99.4453 925.202 99.4453C961.991 99.4453 985.765 123.22 985.765 160.008C985.77 204.043 971.822 258.211 868.405 326.049ZM883.058 192.47L889.083 206.541C889.177 206.74 889.851 208.721 889.248 209.638C888.591 210.633 885.367 212.26 877.72 211.925C877.571 211.909 874.871 211.587 872.331 209.568C875.275 204.993 879.367 198.44 883.058 192.47ZM799.233 73.0946C779.084 73.0946 762.688 56.6986 762.688 36.5453C762.688 16.3962 779.084 0.000244141 799.233 0.000244141C819.386 0.000244141 835.782 16.3962 835.782 36.5453C835.778 56.6986 819.382 73.0946 799.233 73.0946ZM799.233 12.3911C785.913 12.3911 775.075 23.2296 775.075 36.5495C775.075 49.8735 785.913 60.7119 799.233 60.7119C812.557 60.7119 823.395 49.8735 823.395 36.5495C823.391 23.2296 812.553 12.3911 799.233 12.3911ZM926.036 73.0946C905.887 73.0946 889.491 56.6986 889.491 36.5453C889.491 16.3962 905.887 0.000244141 926.036 0.000244141C946.19 0.000244141 962.586 16.3962 962.586 36.5453C962.586 56.6986 946.19 73.0946 926.036 73.0946ZM926.036 12.3911C912.716 12.3911 901.878 23.2296 901.878 36.5495C901.878 49.8735 912.716 60.7119 926.036 60.7119C939.36 60.7119 950.199 49.8735 950.199 36.5495C950.199 23.2296 939.36 12.3911 926.036 12.3911Z" fill="#368DB2"/>
                        </g>
                    </g>
                </g>
            </g>
        </g>
    </g>
    <defs>
        <clipPath id="clip0_0_1">
            <rect width="1000" height="343" fill="white"/>
        </clipPath>
        <clipPath id="clip1_0_1">
            <rect width="1000" height="343" fill="white" transform="translate(-0.606049 0.125)"/>
        </clipPath>
        <clipPath id="clip2_0_1">
            <rect width="997.525" height="343.25" fill="white" transform="translate(0.631622 0.000244141)"/>
        </clipPath>
        <clipPath id="clip3_0_1">
            <rect width="997.525" height="343.25" fill="white" transform="translate(0.631622 0.000244141)"/>
        </clipPath>
        <clipPath id="clip4_0_1">
            <rect width="701.083" height="124.186" fill="white" transform="translate(0.631622 109.532)"/>
        </clipPath>
        <clipPath id="clip5_0_1">
            <rect width="701.083" height="124.186" fill="white" transform="translate(0.631622 109.532)"/>
        </clipPath>
        <clipPath id="clip6_0_1">
            <rect width="701.083" height="124.186" fill="white" transform="translate(0.631622 109.532)"/>
        </clipPath>
        <clipPath id="clip7_0_1">
            <rect width="701.083" height="124.186" fill="white" transform="translate(0.631622 109.532)"/>
        </clipPath>
        <clipPath id="clip8_0_1">
            <rect width="267.125" height="343.25" fill="white" transform="translate(731.031 0.000244141)"/>
        </clipPath>
        <clipPath id="clip9_0_1">
            <rect width="267.125" height="343.25" fill="white" transform="translate(731.031 0.000244141)"/>
        </clipPath>
    </defs>
</svg>
