<svg width="801" height="800" viewBox="0 0 801 800" fill="none" xmlns="http://www.w3.org/2000/svg">
    <path d="M400.5 0C347.906 0 295.826 10.6032 247.235 31.2041C198.644 51.8051 154.494 82.0004 117.304 120.066C42.1954 196.943 0 301.21 0 409.931C0 591.12 114.944 744.844 273.942 799.365C293.967 802.645 300.375 789.937 300.375 778.869C300.375 769.44 300.375 743.614 300.375 709.59C189.436 734.186 165.807 654.659 165.807 654.659C147.384 607.107 121.352 594.4 121.352 594.4C84.906 568.984 124.155 569.804 124.155 569.804C164.205 572.673 185.432 612.027 185.432 612.027C220.275 674.336 279.148 655.889 301.977 646.051C305.581 619.405 315.994 601.368 327.208 591.12C238.297 580.872 144.981 545.618 144.981 389.434C144.981 343.932 160.2 307.448 186.233 278.343C182.228 268.095 168.21 225.462 190.237 170.121C190.237 170.121 223.879 159.053 300.375 211.934C332.014 202.916 366.457 198.407 400.5 198.407C434.542 198.407 468.985 202.916 500.625 211.934C577.12 159.053 610.762 170.121 610.762 170.121C632.79 225.462 618.773 268.095 614.768 278.343C640.8 307.448 656.019 343.932 656.019 389.434C656.019 546.028 562.302 580.462 472.991 590.71C487.409 603.418 500.625 628.424 500.625 666.547V778.869C500.625 789.937 507.033 803.054 527.458 799.365C686.457 744.434 801 591.12 801 409.931C801 356.098 790.641 302.792 770.514 253.057C750.387 203.322 720.886 158.132 683.696 120.066C646.506 82.0004 602.356 51.8051 553.765 31.2041C505.174 10.6032 453.094 0 400.5 0Z" fill="black"/>
</svg>
