<svg xmlns="http://www.w3.org/2000/svg"  viewBox="0 0 50 50" width="50px" height="50px"><path d="M 44.089844 4 L 5.910156 4 C 4.804688 4 4 4.804688 4 5.910156 L 4 44.089844 C 4 45.195313 4.804688 46 5.910156 46 L 44.089844 46 C 45.195313 46 46 45.195313 46 44.089844 L 46 5.910156 C 46 4.804688 45.195313 4 44.089844 4 Z M 18.417969 30 L 16.453125 30 L 16.453125 25.769531 L 14.398438 25.769531 L 14.398438 30 L 12.433594 30 L 12.433594 19.890625 L 14.398438 19.890625 L 14.398438 23.941406 L 16.453125 23.941406 L 16.453125 19.890625 L 18.417969 19.890625 Z M 25.019531 21.707031 L 23.21875 21.707031 L 23.21875 30 L 21.253906 30 L 21.253906 21.707031 L 19.46875 21.707031 L 19.46875 19.890625 L 25.019531 19.890625 Z M 32.410156 30 L 32.230469 26.460938 C 32.1875 25.5 32.113281 24.195313 32.140625 23.113281 L 32.097656 23.113281 C 31.917969 24.195313 31.648438 25.441406 31.453125 26.21875 L 30.582031 29.835938 L 29.1875 29.835938 L 28.347656 26.277344 C 28.152344 25.46875 27.882813 24.210938 27.730469 23.113281 L 27.6875 23.113281 C 27.65625 24.210938 27.597656 25.484375 27.535156 26.488281 L 27.371094 30 L 25.675781 30 L 26.410156 19.890625 L 28.480469 19.890625 L 29.292969 23.550781 C 29.578125 24.824219 29.832031 25.949219 30.011719 27.089844 L 30.042969 27.089844 C 30.191406 25.964844 30.417969 24.824219 30.6875 23.550781 L 31.480469 19.890625 L 33.550781 19.890625 L 34.167969 30 Z M 40.167969 30 L 35.605469 30 L 35.605469 19.890625 L 37.570313 19.890625 L 37.570313 28.335938 L 40.167969 28.335938 Z"/></svg>