<svg xmlns="http://www.w3.org/2000/svg"  viewBox="0 0 100 100" width="50px" height="50px"><path d="M 28.125 16.001953 C 27.049605 15.99698 25.968297 16.001112 24.878906 16.017578 A 2.0002 2.0002 0 0 0 24.865234 16.017578 C 22.709645 16.065328 20.659208 16.972197 19.171875 18.533203 C 17.684317 20.093746 16.877872 22.183923 16.933594 24.339844 C 17.190276 41.077281 15.326002 58.399642 16.263672 74.974609 A 2.0002 2.0002 0 0 0 16.265625 75.001953 C 16.574242 79.383286 20.119253 82.880938 24.503906 83.128906 C 42.883998 84.165125 60.100743 84.347062 75.646484 83.285156 A 2.0002 2.0002 0 0 0 75.660156 83.285156 C 80.138887 82.947287 83.576654 79.064666 83.367188 74.574219 A 2.0002 2.0002 0 0 0 83.367188 74.554688 C 82.744292 63.484403 83.039944 63.840599 83.425781 60.162109 C 83.81159 56.483894 84.240145 49.302554 83.839844 24.085938 C 83.812376 22.040979 82.931159 20.094859 81.40625 18.726562 C 79.885156 17.361689 77.862532 16.689429 75.828125 16.875 L 75.833984 16.873047 C 58.935226 18.362798 44.255922 16.07655 28.125 16.001953 z M 28.119141 20.003906 C 40.036046 20.06765 51.43301 21.392982 63.818359 21.376953 L 63.191406 22.005859 A 1.0005843 1.0005843 0 1 0 64.607422 23.419922 L 66.673828 21.349609 C 67.339934 21.336995 68.009059 21.320573 68.681641 21.298828 L 67.873047 22.105469 A 1.0005836 1.0005836 0 1 0 69.287109 23.521484 L 71.642578 21.167969 C 72.960438 21.097657 74.289801 21.011292 75.636719 20.898438 L 72.292969 24.240234 A 1.0001 1.0001 0 1 0 73.707031 25.654297 L 78.099609 21.263672 C 78.324218 21.387037 78.539345 21.530078 78.734375 21.705078 C 79.254123 22.171448 79.607273 22.781564 79.757812 23.449219 L 76.3125 26.890625 A 1.0005839 1.0005839 0 0 0 77.726562 28.306641 L 79.867188 26.167969 C 79.882494 27.217608 79.893916 28.184398 79.90625 29.167969 L 78.167969 30.548828 A 1.0001 1.0001 0 1 0 79.412109 32.113281 L 79.939453 31.695312 C 79.95001 32.682233 79.957323 33.584372 79.964844 34.501953 L 78.537109 35.634766 A 1.0001893 1.0001893 0 0 0 79.78125 37.201172 L 79.980469 37.042969 C 80.062515 51.797973 79.736355 56.987992 79.447266 59.744141 C 79.085874 63.189564 78.747817 63.641363 79.373047 74.763672 C 79.422766 75.850222 79.06428 76.844996 78.449219 77.632812 L 76.775391 74.603516 A 1.0001 1.0001 0 0 0 75.873047 74.074219 A 1.0001 1.0001 0 0 0 75.025391 75.570312 L 76.861328 78.898438 C 76.400233 79.11032 75.897834 79.254301 75.359375 79.294922 C 74.888784 79.327044 74.401609 79.347123 73.927734 79.376953 L 71.394531 75.037109 A 1.0001 1.0001 0 0 0 70.478516 74.53125 A 1.0001 1.0001 0 0 0 69.666016 76.046875 L 71.6875 79.505859 C 62.658284 80.001382 53.063599 80.102212 42.996094 79.869141 L 43.894531 78.976562 A 1.0001 1.0001 0 0 0 43.173828 77.257812 A 1.0001 1.0001 0 0 0 42.486328 77.556641 L 40.230469 79.794922 C 38.760884 79.752587 37.281376 79.704076 35.792969 79.648438 L 37.705078 77.75 A 1.0001 1.0001 0 0 0 36.984375 76.03125 A 1.0001 1.0001 0 0 0 36.294922 76.330078 L 33.0625 79.542969 C 31.686896 79.484678 30.300753 79.418528 28.910156 79.349609 L 31.625 77.177734 A 1.0001 1.0001 0 0 0 30.992188 75.388672 A 1.0001 1.0001 0 0 0 30.375 75.615234 L 25.898438 79.195312 C 25.506993 79.173975 25.123031 79.15885 24.730469 79.136719 C 23.377461 79.060201 22.197925 78.420801 21.382812 77.458984 L 25.783203 75.476562 A 1.0001 1.0001 0 0 0 25.318359 73.560547 A 1.0001 1.0001 0 0 0 24.962891 73.652344 L 20.433594 75.691406 C 20.34561 75.379212 20.279541 75.056898 20.255859 74.720703 C 20.179674 73.369003 20.130092 72.006018 20.089844 70.638672 L 25.568359 69.548828 A 1.0001 1.0001 0 0 0 25.345703 67.566406 A 1.0001 1.0001 0 0 0 25.177734 67.587891 L 20.035156 68.609375 C 20.011706 67.299643 20.021936 65.974101 20.023438 64.652344 A 1.0002025 1.0002025 0 0 0 20.039062 64.650391 L 24.587891 63.884766 A 1.0001 1.0001 0 0 0 24.423828 61.896484 A 1.0001 1.0001 0 0 0 24.255859 61.912109 L 20.015625 62.625 C 20.026938 61.409801 20.059843 60.182522 20.085938 58.958984 L 22.478516 58.822266 A 1.0002522 1.0002522 0 0 0 22.433594 56.822266 A 1.0001 1.0001 0 0 0 22.363281 56.824219 L 20.125 56.953125 C 20.152678 55.909657 20.186405 54.860839 20.220703 53.8125 L 22.302734 53.691406 A 1.0001 1.0001 0 0 0 22.257812 51.693359 A 1.0001 1.0001 0 0 0 22.1875 51.695312 L 20.287109 51.804688 C 20.610066 42.702679 21.075495 33.452044 20.933594 24.257812 A 2.0002 2.0002 0 0 0 20.931641 24.238281 C 20.903361 23.144202 21.311964 22.084426 22.066406 21.292969 C 22.820535 20.501167 23.858019 20.042311 24.951172 20.017578 C 26.01162 20.001636 27.067888 19.998283 28.119141 20.003906 z M 25.080078 27.394531 C 24.528078 27.394531 24.080078 27.842531 24.080078 28.394531 C 24.080078 28.946531 24.528078 29.394531 25.080078 29.394531 C 25.632078 29.394531 26.080078 28.946531 26.080078 28.394531 C 26.080078 27.842531 25.632078 27.394531 25.080078 27.394531 z M 33.273438 27.394531 C 32.721437 27.394531 32.273438 27.842531 32.273438 28.394531 C 32.273438 28.946531 32.721438 29.394531 33.273438 29.394531 C 33.825437 29.394531 34.273438 28.946531 34.273438 28.394531 C 34.273438 27.842531 33.825437 27.394531 33.273438 27.394531 z M 30.080078 31.798828 C 29.528078 31.798828 29.080078 32.246828 29.080078 32.798828 C 29.080078 33.350828 29.528078 33.798828 30.080078 33.798828 C 30.632078 33.798828 31.080078 33.350828 31.080078 32.798828 C 31.080078 32.246828 30.632078 31.798828 30.080078 31.798828 z M 51.966797 42.128906 A 1.0001 1.0001 0 0 0 51.947266 42.130859 C 51.947266 42.130859 50.383659 42.231312 48.919922 43.439453 C 47.456184 44.647594 46.079178 46.962432 46 50.980469 C 45.92225 54.926049 46.700252 57.069401 48.09375 58.166016 C 49.486487 59.262032 51.133244 59.02909 52.037109 58.994141 C 53.027613 58.956551 53.987824 58.416606 54.818359 57.613281 L 56.400391 58.800781 A 1.0003905 1.0003905 0 0 0 57.599609 57.199219 L 55.966797 55.974609 C 56.580574 54.706411 57 53.144298 57 51 C 57 46.833333 55.942696 44.552858 54.695312 43.345703 C 54.071621 42.742126 53.41913 42.427458 52.914062 42.275391 C 52.408995 42.123323 51.966797 42.128906 51.966797 42.128906 z M 34.769531 42.136719 C 34.557878 42.145703 34.347929 42.16364 34.138672 42.191406 A 1.0001 1.0001 0 0 0 34.128906 42.193359 C 32.029815 42.492025 30.479664 44.230497 30.300781 46.310547 C 30.290201 46.329437 30.265635 46.373037 30.265625 46.373047 C 30.265609 46.373095 30.21875 46.613226 30.21875 46.613281 C 30.218746 46.613336 30.216797 46.683534 30.216797 46.683594 C 30.216797 49.187988 32.267091 51.240234 34.771484 51.240234 L 36.78125 51.240234 C 37.42734 51.240234 38.045344 51.496516 38.501953 51.953125 C 38.960026 52.411198 39.220703 53.032619 39.220703 53.675781 L 39.220703 54.472656 C 39.220703 55.725637 38.286446 56.761037 37.039062 56.894531 C 35.195132 57.062807 33.592037 56.904331 31.501953 56.28125 A 1.0007612 1.0007612 0 0 0 30.929688 58.199219 C 33.210552 58.879202 35.153796 59.077239 37.230469 58.886719 A 1.0001 1.0001 0 0 0 37.244141 58.884766 C 39.494414 58.648165 41.220703 56.73611 41.220703 54.472656 L 41.220703 53.675781 C 41.220703 52.496944 40.747895 51.368989 39.917969 50.539062 C 39.086578 49.707673 37.95716 49.240234 36.78125 49.240234 L 34.771484 49.240234 C 33.36158 49.240234 32.251979 48.123026 32.230469 46.71875 A 1.0001 1.0001 0 0 0 32.232422 46.683594 C 32.232422 45.414124 33.152531 44.352767 34.410156 44.173828 C 35.627836 44.013883 36.891371 44.250718 38.789062 45.144531 A 1.0001 1.0001 0 1 0 39.642578 43.335938 C 37.806405 42.4711 36.251103 42.073827 34.769531 42.136719 z M 63.984375 42.986328 A 1.0001 1.0001 0 0 0 63 44 L 63 58 A 1.0001 1.0001 0 0 0 64 59 L 72 59 A 1.0001 1.0001 0 1 0 72 57 L 65 57 L 65 44 A 1.0001 1.0001 0 0 0 63.984375 42.986328 z M 52.042969 44.130859 C 52.046769 44.130279 52.098898 44.120036 52.335938 44.191406 C 52.580869 44.265156 52.928379 44.41903 53.304688 44.783203 C 54.057305 45.511546 55 47.166667 55 51 C 55 52.707843 54.707272 53.848286 54.341797 54.755859 L 53.599609 54.199219 A 1.0003905 1.0003905 0 0 0 52.400391 55.800781 L 53.246094 56.435547 C 52.826825 56.769455 52.397869 56.979587 51.962891 56.996094 A 1.0001 1.0001 0 0 0 51.960938 56.996094 C 50.914532 57.036342 49.98658 57.110385 49.330078 56.59375 C 48.673576 56.077115 47.927751 54.685951 48 51.019531 C 48.07082 47.425568 49.194597 45.804828 50.193359 44.980469 C 51.186994 44.160342 52.034184 44.131179 52.042969 44.130859 z"/></svg>