<svg xmlns="http://www.w3.org/2000/svg"  viewBox="0 0 100 100" width="50px" height="50px"><path d="M 52.927734 3 A 1.0001 1.0001 0 0 0 51.974609 3.84375 C 51.974609 3.84375 50.670789 11.805774 45.066406 17.410156 C 42.949739 19.526824 40.123613 21.355125 37.773438 23.382812 C 36.487273 24.492491 35.328461 25.710948 34.548828 27.095703 A 1.0001 1.0001 0 0 0 34.017578 28.244141 C 33.709716 29.074381 33.530817 29.957397 33.566406 30.919922 C 33.68296 34.071533 35.774711 37.148024 38.050781 39.820312 C 40.326852 42.492601 42.878514 44.755322 44.097656 45.916016 A 1.0001 1.0001 0 0 0 45.677734 44.738281 C 45.677734 44.738281 44.664426 42.748396 43.802734 40.121094 C 42.941043 37.493791 42.295457 34.241174 42.845703 31.986328 C 43.403183 29.702275 44.813542 28.816215 46.935547 26.972656 C 48.930533 25.23945 51.358848 22.733773 53.484375 17.873047 A 1.0001163 1.0001163 0 0 0 53.964844 16.738281 A 1.0001163 1.0001163 0 0 0 53.964844 16.736328 C 56.246462 10.774895 53.916016 3.6992187 53.916016 3.6992188 A 1.0001 1.0001 0 0 0 52.927734 3 z M 52.771484 8.3125 C 53.017413 10.465696 53.045228 13.13286 52.271484 15.517578 L 49.996094 14.378906 C 51.335083 12.216784 52.182753 10.117898 52.771484 8.3125 z M 70.802734 14.396484 A 1.0001 1.0001 0 0 0 70.472656 14.453125 C 70.472656 14.453125 65.225711 16.280127 59.992188 19.017578 C 57.375425 20.386304 54.757038 21.97982 52.753906 23.742188 C 50.750775 25.504554 49.254636 27.492232 49.361328 29.753906 C 49.442628 31.467311 50.555091 32.823912 51.703125 34.044922 C 52.851159 35.265932 54.126688 36.390606 54.830078 37.3125 C 55.48939 38.176808 55.672085 39.006231 55.615234 39.878906 C 55.558384 40.751581 55.223502 41.662253 54.775391 42.482422 C 53.879169 44.12276 52.59375 45.324219 52.59375 45.324219 A 1.0001 1.0001 0 0 0 53.667969 46.976562 C 53.667969 46.976562 55.744957 46.082996 57.898438 44.5625 C 60.051916 43.042004 62.436665 40.884163 62.751953 37.992188 A 1.0001 1.0001 0 0 0 62.751953 37.990234 C 63.032409 35.40963 61.687185 33.856736 60.736328 32.71875 C 59.785471 31.580764 59.137314 30.894522 59.625 28.751953 C 59.839596 27.808307 60.65005 26.435706 61.794922 25.03125 C 62.939794 23.626794 64.39544 22.16485 65.822266 20.851562 C 68.675916 18.224988 71.398437 16.199219 71.398438 16.199219 A 1.0001 1.0001 0 0 0 70.802734 14.396484 z M 48.871094 16.052734 L 51.521484 17.378906 C 49.56592 21.750661 47.483302 23.846735 45.623047 25.462891 C 43.599302 27.221082 41.623817 28.565725 40.904297 31.513672 C 40.786302 31.997201 40.720789 32.495714 40.677734 33 L 39 33 A 1.0001 1.0001 0 1 0 39 35 L 40.660156 35 C 40.799844 36.990148 41.33062 39.000947 41.902344 40.744141 C 41.941354 40.863067 41.948761 40.836751 41.988281 40.953125 C 41.105874 40.075066 40.45691 39.559787 39.574219 38.523438 C 37.415539 35.988976 35.647899 33.102092 35.564453 30.845703 C 35.544534 30.307006 35.613297 29.79695 35.751953 29.304688 L 37.683594 29.949219 A 1.0005646 1.0005646 0 1 0 38.316406 28.050781 L 36.638672 27.492188 C 36.74269 27.341312 36.843567 27.190133 36.960938 27.041016 L 39.683594 27.949219 A 1.0005646 1.0005646 0 1 0 40.316406 26.050781 L 38.478516 25.4375 C 38.673791 25.257396 38.869735 25.077964 39.080078 24.896484 C 40.314763 23.831222 41.765265 22.769265 43.214844 21.636719 L 43.753906 22.550781 A 1.0001 1.0001 0 1 0 45.476562 21.537109 L 44.861328 20.492188 A 1.0001 1.0001 0 0 0 44.78125 20.375 C 45.3662 19.878917 45.938989 19.365699 46.480469 18.824219 C 47.394326 17.910362 48.183604 16.981303 48.871094 16.052734 z M 65.058594 18.888672 C 64.762028 19.152264 64.771338 19.102349 64.46875 19.380859 C 62.997325 20.735197 61.484909 22.247878 60.246094 23.767578 C 59.007278 25.287278 58.019232 26.78974 57.673828 28.308594 C 57.610934 28.584911 57.577627 28.844836 57.548828 29.101562 L 55.027344 30.066406 A 1.0001 1.0001 0 1 0 55.742188 31.933594 L 57.675781 31.195312 C 57.779429 31.607337 57.917489 31.990352 58.087891 32.337891 L 56.552734 33.105469 A 1.0001163 1.0001163 0 1 0 57.447266 34.894531 L 59.210938 34.013672 C 60.208621 35.206091 60.968492 35.890703 60.763672 37.775391 C 60.56296 39.616416 58.704661 41.545434 56.744141 42.929688 C 56.712591 42.951957 56.713151 42.942854 56.681641 42.964844 C 57.122636 42.070625 57.539756 41.108424 57.611328 40.009766 C 57.615493 39.945841 57.605344 39.87893 57.607422 39.814453 L 59.447266 38.894531 A 1.0001 1.0001 0 0 0 59.003906 36.994141 A 1.0001 1.0001 0 0 0 58.552734 37.105469 L 57.296875 37.732422 C 57.102198 37.174941 56.819534 36.62347 56.419922 36.099609 C 55.507312 34.903503 54.210622 33.793021 53.160156 32.675781 C 52.10969 31.558541 51.398075 30.473798 51.359375 29.658203 C 51.311609 28.645675 51.934675 27.442651 53.099609 26.193359 L 54.566406 26.900391 A 1.0001 1.0001 0 1 0 55.433594 25.099609 L 54.697266 24.744141 C 55.27005 24.280437 55.89013 23.824002 56.556641 23.375 L 57.109375 24.455078 A 1.0001544 1.0001544 0 1 0 58.890625 23.544922 L 58.251953 22.296875 C 59.121441 21.77507 60.012817 21.265487 60.919922 20.791016 C 62.417292 20.0078 63.683139 19.498477 65.058594 18.888672 z M 34.273438 43.371094 C 33.160953 43.380021 30.648056 43.457277 28.345703 43.929688 C 26.810801 44.244625 25.280875 44.554197 24.078125 45.972656 C 23.47675 46.681886 23.124395 47.871821 23.357422 48.892578 C 23.590449 49.913336 24.178381 50.701902 24.953125 51.464844 C 26.47013 52.958852 28.629905 53.708901 31.306641 54.283203 C 33.983377 54.857506 37.192588 55.150778 40.701172 55.150391 C 43.449619 55.150087 46.37998 54.960776 49.355469 54.570312 L 49.355469 56 A 1.0001 1.0001 0 1 0 51.355469 56 L 51.355469 54.275391 C 51.570707 54.240442 51.78464 54.209069 52 54.171875 L 52 56 A 1.0001 1.0001 0 1 0 54 56 L 54 53.787109 C 55.68414 53.440425 57.354444 53.015552 59 52.521484 L 59 54 A 1.0001 1.0001 0 1 0 61 54 L 61 51.880859 C 61.689791 51.642997 62.379789 51.405464 63.052734 51.138672 A 2.0002233 2.0002233 0 1 0 61.578125 47.419922 C 55.06762 50.001041 47.261255 51.149666 40.701172 51.150391 C 37.421131 51.150753 34.448201 50.865354 32.144531 50.371094 C 29.840861 49.876834 28.221761 49.070226 27.759766 48.615234 C 27.59846 48.456386 27.659716 48.503289 27.582031 48.398438 C 27.835719 48.28063 28.220127 48.038532 29.150391 47.847656 C 31.548836 47.355532 34.804688 47.371094 34.804688 47.371094 A 2.0002 2.0002 0 1 0 34.859375 43.373047 C 34.859375 43.373047 34.644266 43.368118 34.273438 43.371094 z M 68.693359 45.232422 C 68.48866 45.231292 68.373047 45.238281 68.373047 45.238281 A 2.0002 2.0002 0 1 0 68.525391 49.234375 C 68.525391 49.234375 69.796299 49.215615 70.931641 49.599609 C 71.499311 49.791605 71.970213 50.070323 72.246094 50.371094 C 72.521975 50.671864 72.695312 50.966277 72.695312 51.697266 C 72.695312 54.071129 71.132278 56.196805 69.341797 57.785156 C 67.551316 59.373508 65.765625 60.251953 65.765625 60.251953 A 2.0007574 2.0007574 0 0 0 67.521484 63.847656 C 67.521484 63.847656 69.760575 62.760492 71.996094 60.777344 C 74.231613 58.794195 76.695312 55.743403 76.695312 51.697266 C 76.695312 50.079754 76.088603 48.642027 75.193359 47.666016 C 74.298115 46.690005 73.20672 46.146676 72.212891 45.810547 C 70.722146 45.306353 69.307458 45.235811 68.693359 45.232422 z M 40.060547 47.460938 C 39.508547 47.432938 39.038719 47.856203 39.011719 48.408203 C 38.982719 48.960203 39.408938 49.429031 39.960938 49.457031 C 40.512937 49.486031 40.982766 49.060766 41.009766 48.509766 C 41.036766 47.959766 40.611547 47.489938 40.060547 47.460938 z M 68.050781 52.001953 C 67.498781 51.973953 67.029953 52.398219 67.001953 52.949219 C 66.973953 53.501219 67.397219 53.969047 67.949219 53.998047 C 68.500219 54.026047 68.970047 53.600781 68.998047 53.050781 C 69.025047 52.499781 68.600781 52.030953 68.050781 52.001953 z M 31.630859 55.443359 A 2.0002 2.0002 0 0 0 30.730469 55.683594 C 30.730469 55.683594 29.588225 56.118696 28.691406 57.404297 C 28.242997 58.047097 27.838509 59.295658 28.341797 60.412109 C 28.845085 61.52856 29.796589 62.096733 30.923828 62.539062 C 31.901617 62.922795 33.267469 63.232258 35.177734 63.535156 C 37.088 63.838054 39.461021 64.087734 42.082031 64.160156 C 47.324052 64.305001 53.564805 63.766695 59.041016 61.328125 A 2.0002 2.0002 0 1 0 57.414062 57.673828 C 52.789274 59.733258 47.055635 60.296515 42.191406 60.162109 C 41.678141 60.147928 41.180934 60.121688 40.689453 60.09375 L 40.949219 59.316406 A 1.0001 1.0001 0 0 0 40.011719 57.986328 A 1.0001 1.0001 0 0 0 39.050781 58.683594 L 38.632812 59.9375 C 38.204424 59.896019 37.855181 59.83967 37.457031 59.791016 L 37.949219 58.316406 A 1.0001 1.0001 0 0 0 37.011719 56.986328 A 1.0001 1.0001 0 0 0 36.050781 57.683594 L 35.441406 59.513672 C 34.269016 59.308994 33.486059 59.100687 32.990234 58.951172 A 2.0002 2.0002 0 0 0 31.630859 55.443359 z M 35.826172 64.871094 A 2.0002 2.0002 0 0 0 35.099609 64.984375 C 35.099609 64.984375 34.163421 65.120978 33.125 66.083984 C 32.865395 66.324736 32.54328 66.658017 32.355469 67.275391 C 32.167658 67.892764 32.314009 68.798971 32.6875 69.333984 C 33.434487 70.404011 34.234264 70.536455 35.25 70.792969 C 38.714878 71.666955 45.974646 73.080476 57.392578 69.802734 A 2.0002 2.0002 0 1 0 56.289062 65.958984 C 46.921065 68.648252 41.212995 67.980933 37.732422 67.228516 A 2.0002 2.0002 0 0 0 35.826172 64.871094 z M 27.539062 66.75 A 2.0002 2.0002 0 0 0 27.400391 66.757812 C 27.400391 66.757812 25.134749 66.911888 22.941406 67.785156 C 21.844735 68.22179 20.672602 68.82465 19.830078 70.035156 C 18.987554 71.245662 18.862193 73.140402 19.644531 74.705078 C 20.476734 76.369485 21.99766 77.398032 23.732422 78.203125 C 25.467183 79.008218 27.507854 79.58376 29.716797 80.021484 C 34.134683 80.896933 39.217258 81.195615 43.470703 81.091797 C 48.362083 80.972254 54.71937 80.148716 60.507812 78.546875 C 66.296256 76.945034 71.588961 74.749033 74.201172 70.830078 A 2.0002 2.0002 0 1 0 70.873047 68.611328 C 69.856652 70.136169 67.360063 71.731542 64.152344 73.068359 L 63.894531 72.552734 A 1.0001 1.0001 0 0 0 63.015625 71.988281 A 1.0001 1.0001 0 0 0 62.105469 73.447266 L 62.275391 73.789062 C 61.362821 74.112712 60.422697 74.421806 59.441406 74.693359 C 56.269493 75.571126 52.841149 76.199678 49.630859 76.597656 L 49.970703 75.242188 A 1.0001 1.0001 0 0 0 49.033203 73.986328 A 1.0001 1.0001 0 0 0 48.029297 74.757812 L 47.511719 76.832031 C 46.673525 76.911117 45.855434 76.975515 45.076172 77.019531 L 45.392578 76.628906 A 1.0001 1.0001 0 0 0 44.587891 74.990234 A 1.0001 1.0001 0 0 0 43.837891 75.371094 L 42.449219 77.091797 C 40.239065 77.112443 37.84154 77.011451 35.460938 76.783203 L 35.949219 75.316406 A 1.0001 1.0001 0 0 0 35.011719 73.986328 A 1.0001 1.0001 0 0 0 34.050781 74.683594 L 33.421875 76.570312 C 33.078706 76.525219 32.740679 76.476887 32.404297 76.425781 L 32.894531 75.447266 A 1.0001 1.0001 0 0 0 31.955078 73.988281 A 1.0001 1.0001 0 0 0 31.105469 74.552734 L 30.349609 76.066406 C 29.035396 75.800313 27.830122 75.476847 26.791016 75.115234 L 27.832031 73.554688 A 1.0001 1.0001 0 0 0 26.980469 71.988281 A 1.0001 1.0001 0 0 0 26.167969 72.445312 L 24.923828 74.3125 C 23.957082 73.785556 23.385352 73.241407 23.222656 72.916016 C 22.913494 72.297692 23.010711 72.467682 23.113281 72.320312 C 23.215851 72.172944 23.712671 71.784319 24.421875 71.501953 C 25.840283 70.937221 27.732422 70.744141 27.732422 70.744141 A 2.0002 2.0002 0 0 0 27.539062 66.75 z M 78.605469 75.898438 A 2.0002 2.0002 0 0 0 77.382812 76.384766 C 77.382812 76.384766 76.302243 77.26663 74.320312 78.431641 L 73.900391 77.564453 A 1.0001 1.0001 0 0 0 73.027344 76.988281 A 1.0001 1.0001 0 0 0 72.099609 78.435547 L 72.564453 79.392578 C 70.485359 80.468142 67.785162 81.637763 64.416016 82.597656 L 63.894531 81.552734 A 1.0001 1.0001 0 0 0 63.015625 80.988281 A 1.0001 1.0001 0 0 0 62.105469 82.447266 L 62.439453 83.115234 C 62.248464 83.160991 62.067514 83.211755 61.873047 83.255859 C 60.577433 83.549707 59.284803 83.783797 58 83.992188 L 58 82 A 1.0001 1.0001 0 0 0 56.984375 80.986328 A 1.0001 1.0001 0 0 0 56 82 L 56 84.291016 C 44.566719 85.808787 34.542969 84.373047 34.542969 84.373047 A 2.0002 2.0002 0 1 0 33.960938 88.330078 C 33.960938 88.330078 48.203845 90.459071 62.757812 87.158203 C 73.695175 84.677639 79.957031 79.445312 79.957031 79.445312 A 2.0002 2.0002 0 0 0 78.605469 75.898438 z M 67.423828 77.886719 C 66.871828 77.857719 66.402 78.281984 66.375 78.833984 C 66.346 79.385984 66.770266 79.853813 67.322266 79.882812 C 67.874266 79.910813 68.344094 79.485547 68.371094 78.935547 C 68.399094 78.384547 67.974828 77.914719 67.423828 77.886719 z"/></svg>