<svg xmlns="http://www.w3.org/2000/svg"  viewBox="0 0 100 100" width="50px" height="50px"><path d="M 48.474609 13.099609 C 45.386925 13.077589 42.272562 13.168579 40.435547 13.441406 C 38.97083 13.658938 36.082058 13.973758 33.982422 16.380859 C 31.882786 18.78796 30.949157 22.793557 31.890625 29.419922 A 2.0002 2.0002 0 0 0 33.753906 31.134766 C 40.352179 31.520186 45.013654 31.337516 47.310547 31.220703 L 47.310547 32.283203 L 23.583984 32.283203 L 23.580078 32.283203 C 23.573878 32.28331 20.542295 32.335693 17.861328 34.707031 C 15.177619 37.080798 12.857595 41.646338 13.009766 49.753906 C 13.154908 57.76367 14.931225 62.127156 17.037109 64.542969 C 18.090052 65.750875 19.217433 66.431932 20.117188 66.779297 C 21.016941 67.126661 21.875 67.152344 21.875 67.152344 L 33.603516 67.152344 C 33.620193 71.587196 33.691406 75.484375 33.691406 75.484375 A 2.0002 2.0002 0 0 0 33.791016 76.068359 C 33.791016 76.068359 34.348111 77.769415 35.351562 79.589844 C 36.355015 81.410272 37.712969 83.682412 40.423828 84.257812 C 44.398205 85.104136 53.034187 84.803599 56.564453 84.279297 C 58.02917 84.061765 60.917942 83.744992 63.017578 81.337891 C 65.117214 78.93079 66.050843 74.927146 65.109375 68.300781 A 2.0002 2.0002 0 0 0 63.246094 66.585938 C 56.647821 66.200517 51.986346 66.383184 49.689453 66.5 L 49.689453 65.4375 L 73.419922 65.4375 C 73.426122 65.437393 76.457705 65.38306 79.138672 63.011719 C 81.822141 60.638165 84.141949 56.073005 83.990234 47.966797 C 83.845092 39.957033 82.068775 35.593547 79.962891 33.177734 C 78.909948 31.969828 77.782566 31.288771 76.882812 30.941406 C 75.983059 30.594042 75.125 30.568359 75.125 30.568359 L 64.408203 30.568359 C 64.390369 26.070067 64.308594 22.230469 64.308594 22.230469 A 2.0002 2.0002 0 0 0 64.306641 22.179688 C 64.306641 22.179688 64.228481 20.233317 63.220703 18.183594 C 62.212924 16.133871 59.980222 13.790107 56.357422 13.429688 C 54.622989 13.256797 51.562294 13.121634 48.474609 13.099609 z M 48 17.169922 L 48 20 A 1.0001 1.0001 0 1 0 50 20 L 50 17.193359 C 51.66339 17.215438 53.0667 17.257395 54.269531 17.318359 A 1.0001 1.0001 0 1 0 55.707031 18.707031 L 56.849609 17.564453 C 57.226863 17.65892 57.554469 17.78517 57.839844 17.9375 L 56.167969 20.445312 A 1.0001 1.0001 0 1 0 57.832031 21.554688 L 59.291016 19.367188 C 59.408424 19.558648 59.531208 19.746538 59.630859 19.949219 C 60.236142 21.180303 60.310065 22.361558 60.310547 22.369141 C 60.311747 22.418871 60.555396 32.705379 60.310547 39.353516 A 2.0002 2.0002 0 0 0 60.310547 39.355469 C 60.303025 39.563468 60.279382 39.739045 60.265625 39.933594 L 58.867188 37.501953 A 1.0001 1.0001 0 0 0 57.955078 36.988281 A 1.0001 1.0001 0 0 0 57.132812 38.498047 L 59.132812 41.974609 A 1.0005196 1.0005196 0 0 0 59.845703 42.462891 C 59.362677 44.097338 58.593651 44.957956 57.90625 45.482422 C 57.89939 45.487656 57.893559 45.488975 57.886719 45.494141 L 55.949219 39.683594 A 1.0001 1.0001 0 0 0 54.958984 38.986328 A 1.0001 1.0001 0 0 0 54.050781 40.316406 L 56.041016 46.289062 C 56.012139 46.289496 54.545827 46.302823 53.949219 46.310547 A 1.0005646 1.0005646 0 0 0 53.949219 45.683594 L 52.949219 42.683594 A 1.0001 1.0001 0 0 0 51.958984 41.986328 A 1.0001 1.0001 0 0 0 51.050781 43.316406 L 52.050781 46.316406 A 1.0005646 1.0005646 0 0 0 52.056641 46.332031 C 51.217381 46.340806 51.166273 46.34483 50.175781 46.351562 C 48.770021 46.361118 47.312665 46.361134 46 46.355469 L 46 42.476562 A 1.0001 1.0001 0 0 0 44.984375 41.460938 A 1.0001 1.0001 0 0 0 44 42.476562 L 44 46.324219 C 43.458845 46.313746 42.697671 46.310608 42.433594 46.292969 C 42.212393 46.278153 41.994061 46.281611 41.775391 46.28125 L 39.914062 42.072266 A 1.0001 1.0001 0 0 0 38.962891 41.462891 A 1.0001 1.0001 0 0 0 38.085938 42.880859 L 39.6875 46.501953 C 39.145567 46.626527 38.627864 46.809132 38.134766 47.035156 L 37.894531 46.552734 A 1.0001 1.0001 0 0 0 37.015625 45.988281 A 1.0001 1.0001 0 0 0 36.105469 47.447266 L 36.435547 48.107422 C 36.201227 48.308861 35.979115 48.525225 35.771484 48.759766 C 35.409187 49.169019 35.099403 49.621023 34.826172 50.101562 L 32.800781 47.400391 A 1.0001 1.0001 0 0 0 31.933594 46.990234 A 1.0001 1.0001 0 0 0 31.199219 48.599609 L 33.941406 52.255859 C 33.920912 52.328957 33.903939 52.404437 33.884766 52.478516 L 30.371094 51.072266 A 1.0001 1.0001 0 1 0 29.628906 52.927734 L 33.533203 54.488281 C 33.515976 54.659129 33.492408 54.825475 33.480469 55 L 31 55 A 1.0001 1.0001 0 1 0 31 57 L 33.439453 57 C 33.426906 60.158655 33.433402 62.113303 33.439453 63.152344 L 24.767578 63.152344 L 25.832031 61.554688 A 1.0001 1.0001 0 0 0 24.980469 59.988281 A 1.0001 1.0001 0 0 0 24.167969 60.445312 L 22.363281 63.152344 L 21.869141 63.152344 A 2.0002 2.0002 0 0 0 21.865234 63.152344 C 21.865234 63.152344 21.901344 63.179194 21.558594 63.046875 C 21.329862 62.958569 21.00918 62.791244 20.638672 62.484375 L 22.800781 59.599609 A 1.0001 1.0001 0 0 0 22.037109 57.988281 A 1.0001 1.0001 0 0 0 21.199219 58.400391 L 19.333984 60.888672 C 19.136346 60.561199 18.93961 60.181789 18.746094 59.746094 L 19.894531 57.447266 A 1.0001 1.0001 0 0 0 18.955078 55.988281 A 1.0001 1.0001 0 0 0 18.105469 56.552734 L 17.855469 57.050781 C 17.450971 55.405292 17.154724 53.302683 17.052734 50.644531 L 17.552734 50.894531 A 1.0001163 1.0001163 0 1 0 18.447266 49.105469 L 17.03125 48.398438 C 17.107355 43.909634 18.007686 41.137023 19.091797 39.417969 L 20.105469 41.447266 A 1.0001163 1.0001163 0 1 0 21.894531 40.552734 L 20.484375 37.730469 C 20.493363 37.722437 20.502747 37.71106 20.511719 37.703125 C 20.890329 37.36824 21.251072 37.121504 21.587891 36.925781 L 22.050781 38.316406 A 1.0005646 1.0005646 0 1 0 23.949219 37.683594 L 23.484375 36.289062 C 23.508051 36.288802 23.576172 36.283203 23.576172 36.283203 A 2.0002 2.0002 0 0 0 23.580078 36.283203 L 31.373047 36.283203 L 32.050781 38.316406 A 1.0005646 1.0005646 0 1 0 33.949219 37.683594 L 33.482422 36.283203 L 34.373047 36.283203 L 35.050781 38.316406 A 1.0005646 1.0005646 0 1 0 36.949219 37.683594 L 36.482422 36.283203 L 41.373047 36.283203 L 42.050781 38.316406 A 1.0005646 1.0005646 0 1 0 43.949219 37.683594 L 43.482422 36.283203 L 45.4375 36.283203 L 46.019531 39.195312 A 1.0001 1.0001 0 1 0 47.980469 38.804688 L 47.476562 36.283203 L 49.310547 36.283203 A 2.0002 2.0002 0 0 0 51.179688 34.988281 L 52.445312 35.832031 A 1.0001 1.0001 0 1 0 53.554688 34.167969 L 51.310547 32.671875 L 51.310547 32 L 54 32 A 1.0001 1.0001 0 1 0 54 30 L 51.310547 30 L 51.310547 29.138672 A 2.0002 2.0002 0 0 0 51.308594 29.105469 L 53.707031 26.707031 A 1.0001 1.0001 0 0 0 52.980469 24.990234 A 1.0001 1.0001 0 0 0 52.292969 25.292969 L 50.226562 27.359375 A 2.0002 2.0002 0 0 0 49.169922 27.142578 C 49.169922 27.142578 43.097646 27.481034 35.708984 27.169922 C 35.277333 22.411687 36.083206 20.058287 36.996094 19.011719 C 38.018957 17.83907 39.458154 17.628952 41.023438 17.396484 C 42.170783 17.226086 45.039544 17.163932 48 17.169922 z M 42.773438 19.064453 C 42.527564 19.051507 42.265787 19.065603 42 19.115234 C 41.468425 19.214494 40.920918 19.457863 40.449219 19.921875 C 39.616654 20.740872 39.226522 21.731042 39.318359 22.634766 C 39.410199 23.538489 39.919001 24.25897 40.527344 24.742188 C 41.09833 25.196381 41.799312 25.530073 42.589844 25.576172 C 43.380375 25.622272 44.248887 25.32464 44.90625 24.667969 A 1.0001 1.0001 0 0 0 44.910156 24.664062 C 46.172156 23.391323 46.212657 21.306926 44.927734 19.947266 A 1.0001 1.0001 0 0 0 44.816406 19.845703 C 44.816406 19.845703 44.258729 19.399604 43.451172 19.173828 C 43.249284 19.117381 43.019311 19.077399 42.773438 19.064453 z M 42.392578 21.033203 C 42.559397 21.00791 42.722138 21.046497 42.912109 21.099609 C 43.246624 21.193129 43.444913 21.341296 43.503906 21.382812 C 44.11386 22.066979 44.088686 22.650981 43.492188 23.253906 C 43.200879 23.543922 42.98317 23.596181 42.707031 23.580078 C 42.430063 23.563928 42.082451 23.423541 41.773438 23.177734 A 1.0001 1.0001 0 0 0 41.771484 23.177734 C 41.499827 22.961952 41.334256 22.684167 41.308594 22.431641 C 41.282934 22.179114 41.334125 21.856659 41.851562 21.347656 C 42.054863 21.147669 42.225759 21.058496 42.392578 21.033203 z M 49.810547 22.742188 C 49.260547 22.742188 48.810547 23.190188 48.810547 23.742188 C 48.810547 24.294188 49.260547 24.742188 49.810547 24.742188 C 50.360547 24.742188 50.810547 24.294187 50.810547 23.742188 C 50.810547 23.190187 50.360547 22.742188 49.810547 22.742188 z M 64.402344 34.568359 L 75.130859 34.568359 A 2.0002 2.0002 0 0 0 75.134766 34.568359 C 75.134766 34.568359 75.098656 34.539549 75.441406 34.671875 C 75.784153 34.804198 76.320208 35.085344 76.947266 35.804688 C 77.899978 36.897612 79.079394 39.107251 79.652344 43.363281 L 78.445312 44.167969 A 1.0001 1.0001 0 1 0 79.554688 45.832031 L 79.880859 45.615234 C 79.933808 46.361761 79.972189 47.149638 79.988281 48 L 78 48 A 1.0001 1.0001 0 1 0 78 50 L 79.957031 50 C 79.820566 53.696397 79.102572 56.149805 78.205078 57.791016 L 76.707031 56.292969 A 1.0001 1.0001 0 0 0 75.990234 55.990234 A 1.0001 1.0001 0 0 0 75.292969 57.707031 L 77.044922 59.458984 C 76.858447 59.663568 76.670911 59.854087 76.488281 60.015625 C 75.500438 60.889381 74.652774 61.202016 74.089844 61.332031 L 72.832031 59.445312 A 1.0001 1.0001 0 0 0 71.988281 58.988281 A 1.0001 1.0001 0 0 0 71.167969 60.554688 L 71.755859 61.4375 L 66.160156 61.4375 L 64.832031 59.445312 A 1.0001 1.0001 0 0 0 63.988281 58.988281 A 1.0001 1.0001 0 0 0 63.167969 60.554688 L 63.755859 61.4375 L 47.689453 61.4375 A 2.0002 2.0002 0 0 0 45.689453 63.4375 L 45.689453 68.582031 A 2.0002 2.0002 0 0 0 47.830078 70.576172 C 47.830078 70.576172 53.902357 70.237717 61.291016 70.548828 C 61.722908 75.307841 60.916866 77.662334 60.003906 78.708984 C 58.981043 79.881633 57.541846 80.089798 55.976562 80.322266 C 54.61686 80.524202 51.141608 80.640934 47.839844 80.642578 L 47.949219 80.316406 A 1.0001 1.0001 0 0 0 47.011719 78.986328 A 1.0001 1.0001 0 0 0 46.050781 79.683594 L 45.740234 80.615234 C 44.547818 80.593162 43.386039 80.567838 42.550781 80.501953 L 43.554688 79.832031 A 1.0001 1.0001 0 0 0 42.980469 77.992188 A 1.0001 1.0001 0 0 0 42.445312 78.167969 L 40.298828 79.597656 C 39.872255 79.160799 39.405532 78.56604 39.001953 77.888672 L 41.375 76.927734 A 1.0006575 1.0006575 0 1 0 40.625 75.072266 L 38.097656 76.095703 C 38.041027 75.962055 38.011381 75.890132 37.966797 75.777344 L 40.599609 73.800781 A 1.0001 1.0001 0 0 0 40.023438 71.992188 A 1.0001 1.0001 0 0 0 39.400391 72.199219 L 37.658203 73.505859 C 37.639519 72.504813 37.630157 71.096887 37.613281 69 L 40 69 A 1.0001 1.0001 0 1 0 40 67 L 37.601562 67 C 37.599341 66.334664 37.588528 65.855071 37.589844 65.15625 A 2.0002 2.0002 0 0 0 37.439453 64.363281 C 37.437356 64.080684 37.442077 61.766028 37.439453 60.162109 L 38.445312 60.832031 A 1.0001 1.0001 0 1 0 39.554688 59.167969 L 37.439453 57.757812 C 37.441493 56.922177 37.43412 57.118095 37.439453 56.158203 C 37.441922 55.71398 37.471077 55.309375 37.509766 54.923828 L 39.292969 56.707031 A 1.0001 1.0001 0 1 0 40.707031 55.292969 L 38.707031 53.292969 A 1.0001 1.0001 0 0 0 37.990234 52.990234 A 1.0001 1.0001 0 0 0 37.902344 52.996094 C 38.132668 52.317605 38.430447 51.788776 38.765625 51.410156 C 39.504733 50.575256 40.465307 50.169295 42.166016 50.283203 C 43.685506 50.3847 47.048142 50.373002 50.203125 50.351562 C 53.358108 50.330123 56.189453 50.287109 56.189453 50.287109 A 2.0002 2.0002 0 0 0 56.257812 50.285156 C 56.257812 50.285156 57.931748 50.179854 59.685547 49.099609 L 61.292969 50.707031 A 1.0001 1.0001 0 1 0 62.707031 49.292969 L 61.244141 47.830078 C 61.732409 47.323107 62.191312 46.712872 62.603516 46 L 65.619141 46 A 1.0001 1.0001 0 1 0 65.619141 44 L 63.517578 44 C 63.954021 42.730385 64.245508 41.24111 64.308594 39.501953 L 64.308594 39.5 C 64.314257 39.346136 64.313192 39.157127 64.318359 39 L 67 39 A 1.0001 1.0001 0 1 0 67 37 L 64.355469 37 C 64.371773 36.187187 64.395007 35.408418 64.402344 34.568359 z M 20.939453 45.167969 C 20.389453 45.167969 19.939453 45.615969 19.939453 46.167969 C 19.939453 46.719969 20.389453 47.167969 20.939453 47.167969 C 21.489453 47.167969 21.939453 46.719969 21.939453 46.167969 C 21.939453 45.615969 21.489453 45.167969 20.939453 45.167969 z M 57.349609 56.402344 C 56.799609 56.402344 56.349609 56.850344 56.349609 57.402344 C 56.349609 57.954344 56.799609 58.402344 57.349609 58.402344 C 57.899609 58.402344 58.349609 57.954344 58.349609 57.402344 C 58.349609 56.850344 57.899609 56.402344 57.349609 56.402344 z M 54.443359 72.101562 C 54.197507 72.088618 53.935764 72.102662 53.669922 72.152344 C 53.138236 72.251704 52.590792 72.49467 52.119141 72.958984 C 51.286665 73.777893 50.896431 74.768221 50.988281 75.671875 C 51.079921 76.573455 51.587424 77.293896 52.193359 77.777344 C 52.762751 78.235475 53.466685 78.569393 54.257812 78.615234 C 55.048941 78.661074 55.917563 78.362301 56.576172 77.705078 A 1.0001 1.0001 0 0 0 56.580078 77.701172 C 57.844575 76.425914 57.870442 74.346892 56.599609 72.988281 A 1.0001 1.0001 0 0 0 56.486328 72.884766 C 56.486328 72.884766 55.928777 72.436918 55.121094 72.210938 C 54.919173 72.154442 54.689211 72.114507 54.443359 72.101562 z M 54.0625 74.070312 C 54.229322 74.045064 54.392123 74.083584 54.582031 74.136719 C 54.915538 74.230029 55.111926 74.377751 55.171875 74.419922 C 55.776108 75.105511 55.75593 75.692126 55.160156 76.292969 C 54.870963 76.579861 54.650498 76.633263 54.373047 76.617188 C 54.094176 76.601028 53.747874 76.460619 53.447266 76.21875 A 1.0001 1.0001 0 0 0 53.443359 76.214844 C 53.171144 75.998309 53.004165 75.721096 52.978516 75.46875 C 52.952866 75.216404 53.003956 74.893857 53.521484 74.384766 C 53.724833 74.18458 53.895678 74.095561 54.0625 74.070312 z"/></svg>