<svg xmlns="http://www.w3.org/2000/svg"  viewBox="0 0 32 32" width="64px" height="64px"><path d="M11 19L13 15 12 15 10 19zM9 19l2-4H3c-.5522461 0-1 .4477539-1 1v3H9zM7 16c.5523071 0 1 .4476929 1 1s-.4476929 1-1 1c-.5522461 0-1-.4476929-1-1S6.4477539 16 7 16zM4 16c.5523071 0 1 .4476929 1 1s-.4476929 1-1 1c-.5522461 0-1-.4476929-1-1S3.4477539 16 4 16zM30 19v-3c0-.5522461-.4477539-1-1-1H14l-2 4H30zM26 10h-1.5224609c-.1054688-.2978516-.2260742-.5888672-.3613281-.8730469l1.0761719-1.0766602c.3904419-.390625.3903198-1.0237427-.0001831-1.4142456l-2.8284302-2.8284302c-.3903809-.3904419-1.0233765-.3905029-1.4138794-.0001831l-1.0768433 1.076355C19.5888672 4.7485352 19.2978516 4.6279297 19 4.5224609V3c0-.5523071-.4476929-1-1-1h-4c-.5522461 0-1 .4476929-1 1v1.5224609c-.2978516.1054688-.5888672.2260742-.8730469.3613281l-1.0767822-1.076355c-.3905029-.3903198-1.0234985-.3902588-1.4139404.0001831L6.8076172 6.6362305C6.4172363 7.0266113 6.4171143 7.6596069 6.8074951 8.0501099l1.0762939 1.0768433C7.7485352 9.4111328 7.6279297 9.7021484 7.5224609 10H6c-.5522461 0-1 .4476929-1 1v3h6c0-1.6568604 1.3431396-3 3-3h2c-1.6542969 0-3-1.3457031-3-3s1.3457031-3 3-3 3 1.3457031 3 3-1.3457031 3-3 3h2c1.6568604 0 3 1.3431396 3 3h6v-3C27 10.4476929 26.5523071 10 26 10zM2 20v9c0 .5522461.4477539 1 1 1h26c.5522461 0 1-.4477539 1-1v-9H2zM12.8203125 27.1158447c.2119141.1767578.2407227.4921875.0639648.7045898-.0991211.1186523-.2412109.1796875-.3847656.1796875-.112793 0-.2260742-.0380859-.3198242-.1157227l-3-2.5C9.065918 25.2891846 9 25.1485596 9 25.0001221s.065918-.2890625.1796875-.3842773l3-2.5c.2128906-.1767578.527832-.1479492.7045898.0639648.1767578.2124023.1479492.527832-.0639648.7045898L10.28125 25.0001221 12.8203125 27.1158447zM17.928894 22.7568359l-3 5c-.09375.15625-.2592773.2426758-.4291992.2426758-.0874023 0-.1762695-.0229492-.2568359-.0712891-.2368164-.1420898-.3134766-.4492188-.1713867-.6860352l3-5c.1425781-.2373047.453125-.3120117.6855469-.1713867C17.9943237 22.2128906 18.0714722 22.5200195 17.928894 22.7568359zM22.8205566 25.3843994l-3 2.5c-.09375.0776367-.2070313.1157227-.3198242.1157227-.1435547 0-.2856445-.0610352-.3847656-.1796875-.1767578-.2124023-.1479492-.527832.0639648-.7045898l2.5390625-2.1157227-2.5390625-2.1157227c-.2119141-.1767578-.2407227-.4921875-.0639648-.7045898.1767578-.2119141.4916992-.2407227.7045898-.0639648l3 2.5c.1137695.0952148.1796875.2358398.1796875.3842773S22.9343262 25.2891846 22.8205566 25.3843994z"/></svg>