<svg width="800" height="800" viewBox="0 0 800 800" fill="none" xmlns="http://www.w3.org/2000/svg">
    <path d="M784.844 264.167C790.937 257.708 800 263.75 800 273.958V700C800 755.208 766.406 800 725 800H75C33.5938 800 0 755.208 0 700V274.167C0 263.75 8.90625 257.917 15.1562 264.375C50.1562 300.625 96.5625 346.667 255.938 501.042C288.906 533.125 344.531 600.625 400 600.208C455.781 600.833 512.5 531.875 544.219 501.042C703.594 346.667 749.844 300.417 784.844 264.167ZM400 533.333C436.25 534.167 488.437 472.5 514.687 447.083C722.031 246.458 737.812 228.958 785.625 178.958C794.687 169.583 800 155 800 139.583V100C800 44.7917 766.406 0 725 0H75C33.5938 0 0 44.7917 0 100V139.583C0 155 5.3125 169.375 14.375 178.958C62.1875 228.75 77.9688 246.458 285.313 447.083C311.563 472.5 363.75 534.167 400 533.333Z" fill="black"/>
</svg>
