<svg width="799" height="800" viewBox="0 0 799 800" fill="none" xmlns="http://www.w3.org/2000/svg">
    <path d="M713.393 0H85.6071C38.3449 0 0 38.3929 0 85.7143V714.286C0 761.607 38.3449 800 85.6071 800H713.393C760.655 800 799 761.607 799 714.286V85.7143C799 38.3929 760.655 0 713.393 0ZM626.181 283.571C626.537 288.571 626.537 293.75 626.537 298.75C626.537 453.571 508.827 631.964 293.74 631.964C227.394 631.964 165.864 612.679 114.143 579.464C123.595 580.536 132.691 580.893 142.322 580.893C197.075 580.893 247.369 562.321 287.497 530.893C236.133 529.821 192.973 496.071 178.17 449.643C196.183 452.321 212.413 452.321 230.961 447.5C177.456 436.607 137.328 389.464 137.328 332.5V331.071C152.844 339.821 171.036 345.179 190.119 345.893C174.075 335.208 160.923 320.712 151.836 303.699C142.749 286.686 138.01 267.686 138.042 248.393C138.042 226.607 143.749 206.607 153.915 189.286C211.521 260.357 298.02 306.786 395.041 311.786C378.455 232.321 437.845 167.857 509.184 167.857C542.892 167.857 573.211 181.964 594.613 204.821C621.008 199.821 646.334 190 668.806 176.607C660.067 203.75 641.697 226.607 617.442 241.071C640.984 238.571 663.812 231.964 684.857 222.857C668.984 246.25 649.009 266.964 626.181 283.571Z" fill="black"/>
</svg>
